<?xml version="1.0" standalone="no"?>
<!DOCTYPE svg PUBLIC "-//W3C//DTD SVG 20010904//EN"
 "http://www.w3.org/TR/2001/REC-SVG-20010904/DTD/svg10.dtd">
<svg version="1.0" xmlns="http://www.w3.org/2000/svg"
 width="512.000000pt" height="512.000000pt" viewBox="0 0 512.000000 512.000000"
 preserveAspectRatio="xMidYMid meet">

<g transform="translate(0.000000,512.000000) scale(0.100000,-0.100000)"
fill="#000000" stroke="none">
<path d="M2410 5110 c-1145 -64 -2128 -915 -2354 -2040 -65 -324 -64 -712 4
-1037 202 -969 971 -1747 1945 -1967 187 -42 337 -57 560 -57 419 0 782 87
1150 275 632 322 1092 877 1299 1566 110 364 129 830 50 1220 -115 570 -448
1116 -906 1481 -501 400 -1108 594 -1748 559z m227 -992 c23 -13 309 -297 664
-658 342 -349 693 -706 778 -793 86 -86 164 -172 174 -190 33 -61 17 -147 -39
-199 -30 -28 -103 -52 -132 -44 -9 2 -28 7 -42 10 -24 5 -213 192 -921 911
-162 165 -332 339 -378 387 -46 48 -98 94 -116 102 -44 21 -103 20 -141 -1
-17 -10 -328 -319 -690 -688 -362 -368 -674 -680 -694 -692 -71 -46 -169 -24
-223 49 -29 38 -34 123 -10 165 27 49 1570 1614 1616 1641 22 12 57 22 77 22
20 0 55 -10 77 -22z m551 -1297 l592 -599 0 -590 c0 -325 -3 -598 -6 -607 -17
-42 -43 -45 -458 -45 l-395 0 -28 24 -28 24 -3 349 c-3 339 -4 348 -24 370
-21 23 -25 23 -278 23 -253 0 -257 0 -278 -23 -20 -22 -21 -31 -24 -370 l-3
-349 -28 -24 -28 -24 -395 0 c-404 0 -422 2 -451 39 -9 12 -12 159 -13 610 l0
594 328 334 c942 961 842 864 888 863 40 0 44 -4 632 -599z"/>
</g>
</svg>
