<?xml version="1.0" standalone="no"?>
<!DOCTYPE svg PUBLIC "-//W3C//DTD SVG 20010904//EN"
 "http://www.w3.org/TR/2001/REC-SVG-20010904/DTD/svg10.dtd">
<svg version="1.0" xmlns="http://www.w3.org/2000/svg"
 width="512.000000pt" height="512.000000pt" viewBox="0 0 512.000000 512.000000"
 preserveAspectRatio="xMidYMid meet">

<g transform="translate(0.000000,512.000000) scale(0.100000,-0.100000)"
fill="#000000" stroke="none">
<path d="M3960 4624 c-36 -7 -99 -30 -140 -50 -72 -35 -106 -67 -898 -858
-663 -662 -825 -828 -836 -861 -21 -58 -159 -711 -164 -770 -3 -40 1 -57 20
-85 39 -57 85 -82 143 -78 59 5 712 143 770 164 33 11 200 174 861 836 785
788 822 826 857 898 40 80 67 186 67 260 0 75 -27 181 -66 258 -112 221 -367
340 -614 286z m229 -334 c81 -41 125 -116 125 -210 0 -87 -20 -123 -138 -240
l-96 -95 -167 168 -168 167 95 96 c95 96 129 121 185 135 43 11 122 1 164 -21z
m-906 -1342 l-568 -568 -209 -45 c-115 -25 -211 -44 -213 -42 -2 2 17 98 42
213 l45 209 567 567 568 568 167 -167 168 -168 -567 -567z"/>
<path d="M700 3983 c-99 -34 -172 -109 -204 -209 -15 -44 -16 -195 -14 -1554
l3 -1505 34 -63 c38 -70 69 -100 145 -140 l51 -27 1525 0 1525 0 63 34 c70 38
100 69 140 145 l27 51 3 843 c3 940 7 885 -66 940 -51 39 -133 39 -184 0 -72
-55 -68 -6 -68 -897 l0 -801 -1440 0 -1440 0 0 1440 0 1440 801 0 c891 0 842
-4 897 68 39 51 39 133 0 184 -55 72 -2 68 -925 68 -726 -1 -834 -3 -873 -17z"/>
</g>
</svg>
